<svg width="218" height="210" viewBox="0 0 218 210" fill="none" xmlns="http://www.w3.org/2000/svg">
<path d="M33.645 71.655C13.407 85.138 0.0319977 108.151 0.0319977 134.241C0.0319977 175.689 33.757 209.409 75.199 209.409C87.285 209.409 98.696 206.53 108.819 201.445L108.798 201.434L108.668 201.366C118.829 206.5 130.298 209.409 142.439 209.409C183.889 209.409 217.612 175.689 217.612 134.241C217.612 108.128 204.216 85.092 183.949 71.615C181.89 31.95 148.976 0.315002 108.809 0.315002C68.703 0.315002 35.832 31.857 33.679 71.433L33.645 71.655ZM50.81 62.991C56.589 36.281 80.395 16.204 108.811 16.204C141.539 16.204 168.164 42.83 168.164 75.558C168.164 92.832 160.74 108.403 148.926 119.26L140.645 114.513L124.727 123.636L150.292 138.294C166.616 127.461 178.488 110.44 182.532 90.601C194.331 101.447 201.735 116.995 201.735 134.243C201.735 166.938 175.134 193.536 142.438 193.536C114.049 193.536 90.223 173.485 84.443 146.804L92.901 141.925V123.68L67.332 138.374C68.472 159.25 78.196 177.88 92.99 190.821L92.983 190.804C87.362 192.579 81.4 193.535 75.198 193.535C42.502 193.535 15.906 166.937 15.906 134.242C15.906 101.546 42.501 74.944 75.198 74.944C81.405 74.944 87.385 75.906 93.005 77.678L93.042 87.304L108.901 96.367V67.035C98.901 61.951 87.321 59.07 75.24 59.07C66.685 59.07 58.443 60.513 50.774 63.16L50.81 62.991Z" fill="#822EF5"/>
</svg>
