<svg width="89" height="89" viewBox="0 0 89 89" fill="none" xmlns="http://www.w3.org/2000/svg">
<path d="M88.17 0.88V87.29C88.1713 87.4059 88.1495 87.521 88.1057 87.6283C88.062 87.7357 87.9972 87.8333 87.9152 87.9152C87.8333 87.9972 87.7357 88.062 87.6283 88.1057C87.521 88.1495 87.4059 88.1713 87.29 88.17H52.9V70.54H70.54V26.45H52.9V52.9H35.27V26.45H17.63V70.54H35.27V88.17H1.77C1.53803 88.1713 1.30809 88.1268 1.09341 88.0389C0.878717 87.9511 0.683514 87.8216 0.519023 87.6581C0.354531 87.4945 0.223995 87.3 0.134922 87.0858C0.0458492 86.8717 -3.74416e-06 86.642 2.29308e-10 86.41L2.29308e-10 0.88C0.00259895 0.647416 0.0961474 0.425091 0.260619 0.260619C0.425091 0.0961474 0.647416 0.00259895 0.88 0L87.29 0C87.5234 0 87.7472 0.092714 87.9123 0.257746C88.0773 0.422778 88.17 0.646609 88.17 0.88Z" fill="#00C4A6"/>
</svg>
